<?xml version="1.0" ?><!DOCTYPE svg  PUBLIC '-//W3C//DTD SVG 1.1//EN'  'http://www.w3.org/Graphics/SVG/1.1/DTD/svg11.dtd'><svg height="512px" style="enable-background:new 0 0 512 512;" version="1.1" viewBox="0 0 512 512" width="512px" xml:space="preserve" xmlns="http://www.w3.org/2000/svg" xmlns:xlink="http://www.w3.org/1999/xlink"><g id="comp_x5F_53-canadian-maple-leaf"><g><path d="    M230,368c-9.073,2.247-93.312,23.729-93.312,23.729s4.492-18.057,9.072-31.535c4.404-13.477,0-15.722-4.58-20.214    c-2.337-2.247-94.516-83.016-94.516-83.016l15.724-6.829c8.983-4.401,6.647-10.241,4.491-15.633    c-2.247-6.827-18.059-60.464-18.059-60.464s42.766,8.984,51.839,11.23c6.739,2.155,8.983-2.246,11.23-6.738    c2.245-4.492,13.477-29.02,13.477-29.02s47.258,53.727,49.504,55.974c9.073,6.737,18.058,0,15.813-8.984    c0-8.985-24.796-116.438-24.796-116.438s27.041,15.633,36.026,20.125c6.828,4.492,11.32,4.492,15.813-4.492    C222.22,88.957,255.91,24,255.91,24s33.78,64.957,38.363,71.695c4.492,8.984,9.072,8.984,15.812,4.492    c8.983-4.492,36.026-20.125,36.026-20.125s-24.797,107.453-24.797,116.438c-2.246,8.984,6.829,15.722,15.813,8.984    c2.247-2.157,49.505-55.974,49.505-55.974s11.229,24.618,13.478,29.11c2.244,4.492,4.49,8.894,11.229,6.738    c8.984-2.246,51.84-11.23,51.84-11.23s-15.901,53.637-18.058,60.463c-2.157,5.302-4.493,11.23,4.493,15.634l15.722,6.738    c0,0-92.27,80.769-94.516,83.016c-4.493,4.492-8.984,6.737-4.493,20.214c4.493,13.479,8.986,31.535,8.986,31.535    S288.984,370.247,280,368l30,120H210L230,368z" style="fill:none;stroke:#000000;stroke-width:20;stroke-linecap:round;stroke-linejoin:round;stroke-miterlimit:10;"/></g></g><g id="Layer_1"/></svg>